<?xml version="1.0" standalone="no"?>
<!DOCTYPE svg PUBLIC "-//W3C//DTD SVG 1.1//EN" "http://www.w3.org/Graphics/SVG/1.1/DTD/svg11.dtd" >
<svg xmlns="http://www.w3.org/2000/svg">
<metadata>Generated by IcoMoon</metadata>
<defs>
<font id="icomoon" horiz-adv-x="1024">
<font-face units-per-em="1024" ascent="960" descent="-64" />
<missing-glyph horiz-adv-x="1024" />
<glyph unicode="&#x20;" horiz-adv-x="512" d="" />
<glyph unicode="&#xe900;" glyph-name="web" d="M82.944 884.736c-9.216-4.608-23.040-16.384-30.72-26.112l-13.824-17.92-1.024-310.272-1.536-310.272 11.776-19.968c6.656-12.8 19.968-24.576 33.792-32.256l22.528-11.776h816.128l22.528 11.776c13.824 7.68 27.136 19.456 33.792 32.256l11.776 19.968-1.536 310.272-1.024 310.272-13.824 17.92c-28.16 36.864-2.56 34.816-460.8 34.816-370.176 0-412.672-1.024-428.032-8.704zM940.544 845.824l14.336-13.824 1.536-298.496c1.536-312.832 1.024-318.464-21.504-333.824-15.872-11.264-829.952-11.264-845.824 0-22.528 15.36-23.040 20.992-21.504 333.824 1.536 289.28 2.048 297.984 11.776 308.736 5.632 6.144 14.848 13.312 20.48 15.872 5.632 2.048 194.048 3.584 418.304 3.072l408.576-1.024 13.824-14.336zM105.472 823.808c-7.168-7.168-8.192-37.888-8.192-263.68 0-166.912 2.048-259.584 5.12-266.24 5.12-9.728 15.36-9.728 409.6-9.728s404.48 0 409.6 9.728c3.072 6.656 5.12 99.328 5.12 266.24 0 225.792-1.024 256.512-8.192 263.68s-51.2 8.192-406.528 8.192c-355.328 0-399.36-1.024-406.528-8.192zM890.88 558.080v-238.080h-757.76v476.16h757.76v-238.080zM676.864 728.576c-3.584-3.584-6.144-8.704-6.144-11.776 0-2.56 30.72-35.84 68.608-73.728 48.128-47.616 71.168-67.584 77.824-66.048 5.12 1.024 10.24 5.12 11.264 9.216 1.536 8.192-131.072 148.992-139.776 148.48-3.072 0-8.192-2.56-11.776-6.144zM420.864 119.296c-3.584-3.584-6.144-22.528-6.144-48.64v-41.984l-120.32-3.072v-25.6h435.2v25.6l-119.808 3.072-1.536 44.032c-1.024 34.304-3.584 45.056-10.24 49.152-6.144 4.096-10.752 3.584-16.384-1.024-6.144-5.12-8.192-16.896-8.192-49.664v-43.008h-122.88v42.496c0 40.96-4.608 54.784-17.92 54.784-3.072 0-8.192-2.56-11.776-6.144z" />
<glyph unicode="&#xe901;" glyph-name="bigdata" d="M203.264 915.456c-2.048-1.536-3.584-15.36-3.584-30.72 0-26.624 0-27.136 15.36-27.136 13.824 0 15.36 1.536 15.36 15.36v15.36h358.4v30.72h-190.976c-105.472 0-193.024-1.536-194.56-3.584zM705.024 915.968c-2.048-2.048-3.584-15.872-3.584-31.232 0-14.848-2.048-27.136-4.096-27.136-2.56 0-10.752 7.168-18.944 15.36-8.192 8.704-19.456 15.36-25.6 15.36-12.8 0-79.36-65.536-79.36-77.824 0-5.12 7.168-16.896 15.872-27.136l15.872-17.92h-25.088c-13.824 0-27.648-2.56-31.232-6.144-8.192-8.192-8.192-107.52 0-115.712 3.584-3.584 17.408-6.144 30.72-6.144s24.576-2.048 24.576-4.096c0-2.56-6.656-10.752-15.36-18.944-8.192-8.192-15.36-18.432-15.36-22.528 0-8.704 70.656-82.432 78.848-82.432 3.072 0 13.824 8.704 24.576 18.944 21.504 20.992 23.552 19.456 25.6-21.504l1.536-25.6h117.76l1.536 29.696c1.024 15.872 3.072 29.184 5.632 29.184 2.048 0 10.24-6.656 18.432-15.36 8.192-8.192 19.456-15.36 25.6-15.36 13.824 0 79.36 65.536 79.36 79.872 0 5.632-6.656 16.896-15.36 25.088-8.192 8.192-15.36 16.384-15.36 18.432 0 2.56 13.312 4.608 29.696 5.632l29.184 1.536v117.76l-29.184 1.536c-16.384 1.024-29.696 3.072-29.696 5.632 0 2.048 7.168 10.24 15.36 18.432 8.704 8.192 15.36 19.456 15.36 25.6 0 13.824-65.536 79.36-79.872 79.36-5.632 0-16.896-6.656-25.088-15.36-8.192-8.192-16.384-15.36-18.432-15.36-2.56 0-4.608 13.312-5.632 29.696l-1.536 29.184-56.832 1.536c-30.72 0.512-57.856-0.512-59.904-2.048zM793.6 865.28c0-20.48 2.048-24.064 16.896-33.28 22.016-13.824 29.696-12.8 47.104 5.12l14.848 15.36 44.032-43.008-15.872-16.384c-16.896-17.408-16.896-27.136-1.536-51.712 6.144-9.216 12.288-11.776 30.208-11.776h23.040v-61.44h-23.040c-20.48 0-24.064-2.048-33.28-16.384-13.824-22.528-12.8-29.184 5.12-47.616l15.36-15.872-44.032-43.008-14.848 15.36c-17.408 17.92-25.088 18.944-47.104 5.12-14.848-9.216-16.896-12.8-16.896-33.28v-23.040h-61.44v22.528c0 26.112-7.68 36.352-31.232 41.472-13.312 3.072-18.432 1.024-32.256-12.288l-16.384-15.872-43.008 44.032 32.768 32.768-7.68 21.504c-8.192 21.504-8.704 22.016-34.304 23.552l-26.624 1.536v60.928h22.016c25.088 0 36.352 8.704 41.984 32.256 3.072 11.776 1.024 17.408-12.288 31.232l-15.872 16.384 44.032 43.008 14.848-15.36c17.408-17.92 25.088-18.944 47.616-5.12 14.336 9.216 16.384 12.8 16.384 33.28v23.040h61.44v-23.040zM731.136 752.128c-39.424-20.992-38.4-86.528 1.024-107.008 30.72-15.872 70.144-5.12 84.48 23.040 29.184 56.32-29.696 114.176-85.504 83.968zM278.016 856.576c-10.752-11.776-11.264-12.8-3.072-20.992s1.536-8.704-112.64-8.704h-121.344v-35.84h121.344c117.248 0 120.832-0.512 112.128-9.216-7.68-9.216-7.68-10.24 2.048-18.944 10.24-9.216 10.752-9.216 35.84 15.36 14.336 13.824 25.6 28.16 25.6 32.256 0 3.584-10.752 18.432-24.576 32.256l-24.064 25.6-11.264-11.776zM64.512 745.472c-29.184-29.184-28.672-34.304 4.608-67.072l23.040-22.528 11.264 10.752c10.752 11.264 10.752 11.776 1.536 22.016l-9.216 10.24h242.176v30.72h-121.344c-120.32 0-120.832 0-111.616 10.24 8.704 9.728 8.704 10.752 0 20.48-5.12 5.632-10.752 10.24-12.288 10.24-2.048 0-14.336-11.264-28.16-25.088zM200.704 544.256l1.536-124.416 58.88-3.072v15.872c0 13.824-1.536 15.36-15.36 15.36h-15.36v220.16h-30.72l1.024-123.904zM276.48 652.8v-15.36h250.88v30.72h-250.88v-15.36zM47.616 633.856c-5.12-2.048-6.656-71.168-6.656-323.584 0-324.608 0.512-333.312 17.92-333.312 3.072 0 32.768 35.84 66.56 79.36l60.928 79.36h74.752v30.72h-90.624l-47.104-61.44c-26.112-33.792-48.128-61.44-49.664-61.44-1.024 0-2.048 126.976-2.048 281.6v281.6h76.8v30.72l-47.104-0.512c-26.112 0-50.688-1.536-53.76-3.072zM276.48 591.36v-15.36h250.88v30.72h-250.88v-15.36zM353.28 524.8v-15.36h174.080v30.72h-174.080v-15.36zM951.296 416.256l-1.536-93.184-95.232 124.928h-91.648v-30.72h75.264l58.368-76.288c32.256-42.496 61.44-77.824 65.536-79.872 18.944-7.68 20.992 5.12 20.992 128.512v119.808h-30.72l-1.024-93.184zM295.424 444.416c-2.048-1.536-3.584-18.944-3.584-38.4v-34.816h-76.8v-31.232l104.96 3.072 2.56 29.696 2.56 29.184 38.4-27.136c20.992-14.848 62.976-44.032 93.184-64.512l54.272-37.888 91.136 63.488c50.176 34.816 93.184 64 95.232 65.024s4.096-51.2 4.096-116.224v-118.272h-378.368l-1.536 37.376-1.536 36.864-135.68 3.072v-31.232h107.008l1.536-36.864 1.536-37.376h435.2v307.2l-215.552 1.536c-118.272 0.512-217.088-0.512-218.624-2.56zM660.48 415.232c0-1.536-33.28-25.6-74.24-53.76l-74.24-51.712-75.776 51.712c-41.472 28.672-76.288 52.736-77.312 53.76s66.048 2.048 149.504 2.048c83.968 0 152.064-1.024 152.064-2.048zM793.6 268.8v-102.4h-15.36c-13.824 0-15.36-1.536-15.36-15.36v-15.872l58.88 3.072 1.536 116.736 1.024 116.224h-30.72v-102.4zM149.504 290.816l1.536-14.336 86.016-1.536 85.504-1.024v30.72h-174.592l1.536-13.824z" />
<glyph unicode="&#xe902;" glyph-name="avatar" d="M406.016 901.632c-45.056-14.848-85.504-50.688-105.984-94.72-9.728-21.504-10.752-33.792-12.288-147.456-2.56-164.864 5.632-196.096 66.56-261.12l25.088-26.112-75.776-2.048c-73.216-1.536-76.8-2.048-110.592-17.92-63.488-30.208-111.616-90.624-125.952-159.232-3.072-14.848-5.632-68.608-5.632-118.784v-92.16h901.12v92.16c0 50.176-2.56 103.936-5.632 118.784-14.336 68.608-62.464 129.024-125.952 159.232-33.792 15.872-37.376 16.384-110.592 17.92l-75.776 2.048 25.088 26.112c60.416 64.512 68.608 95.744 66.56 256l-1.536 119.808-13.824 17.92c-7.68 9.728-22.016 22.016-31.744 26.624-10.24 4.608-21.504 14.848-25.6 22.528-9.728 17.92-36.864 43.52-59.392 55.296-14.848 8.192-31.744 9.728-97.28 10.752-55.808 1.024-86.016-1.024-100.864-5.632zM586.752 858.112c24.064-10.752 42.496-32.256 46.592-53.248 3.072-14.848 4.096-15.872 28.16-20.992 29.184-6.656 34.816-19.968 34.816-80.896 0-30.208-1.536-55.296-3.072-55.296s-7.168 2.56-12.8 5.12c-15.36 8.704-25.088 32.768-25.088 64v28.16h-25.088c-22.528 0-26.112-2.048-38.4-17.408-7.168-9.728-25.088-23.552-39.936-30.72-26.112-12.8-29.184-13.312-125.44-13.312h-98.816v37.376c0 49.152 11.264 81.92 38.4 108.544 30.72 31.232 53.76 37.376 133.12 37.888 54.272 0 70.656-1.536 87.552-9.216zM648.704 626.688c8.704-7.168 23.040-16.384 32.256-19.968l16.896-6.656-2.56-44.544c-3.584-55.296-18.944-92.16-53.76-126.976-91.136-90.624-243.2-62.976-297.472 54.272-11.776 25.6-13.824 37.376-15.36 94.72l-2.048 65.024h103.936c103.936 0 104.448 0 135.168 14.336 16.896 8.192 34.304 18.944 37.888 23.552 7.168 8.192 8.704 7.168 18.432-15.872 6.144-13.824 18.432-30.72 26.624-37.888zM302.080 327.68c0-1.536-9.216-15.36-20.48-30.208s-20.48-28.672-20.48-30.208c0-1.536 18.432-16.896 40.96-34.304l40.96-31.232-20.992-40.96c-11.264-23.040-19.968-41.984-18.944-43.008 1.024-0.512 30.208-19.968 65.536-43.52 35.328-23.040 66.048-44.544 69.12-46.592 2.56-2.56-28.672-4.608-73.216-4.608h-77.824v122.88h-40.96v-122.88h-143.36v73.216c0 82.432 6.656 113.664 31.744 153.088 29.184 46.080 89.088 80.384 141.312 80.896 14.336 0 26.624-1.024 26.624-2.56zM426.496 194.048c27.648-74.752 49.664-136.704 48.64-138.24-1.024-1.024-28.672 15.872-61.44 37.888l-59.392 39.424 19.968 38.4c10.752 20.992 19.456 39.424 19.968 41.472 0 1.536-17.408 15.36-38.4 30.72s-37.376 30.72-35.84 34.304c1.024 3.072 9.728 16.384 18.944 29.184 30.208 40.96 31.232 39.936 87.552-113.152zM603.136 325.632c-0.512-2.56-20.992-56.32-45.056-120.32-23.552-63.488-44.544-115.712-46.080-115.712s-22.528 52.224-46.080 115.712c-24.064 64-44.032 117.76-45.056 120.32s39.936 4.608 91.136 4.608c51.2 0 92.16-2.048 91.136-4.608zM685.056 307.2c9.216-12.8 17.92-26.112 18.944-29.184 1.536-3.584-14.848-18.944-35.84-34.304s-38.4-29.184-38.4-30.72c0.512-2.048 9.216-20.48 19.968-41.472l19.968-38.4-59.392-39.424c-32.768-22.016-60.416-38.912-61.44-37.888-1.024 1.536 20.992 63.488 48.64 138.24 56.32 153.088 57.344 154.112 87.552 113.152zM804.864 317.952c37.376-15.36 66.048-37.888 84.992-68.608 25.088-39.424 31.744-70.656 31.744-153.088v-73.216h-143.36v122.88h-40.96v-122.88h-77.824c-44.544 0-75.776 2.048-73.216 4.608 3.072 2.048 33.792 23.552 69.12 46.592 35.328 23.552 64.512 43.008 65.536 43.52 1.024 1.024-7.68 19.968-18.944 43.008l-20.992 40.96 40.96 31.232c22.528 17.408 40.96 32.768 40.96 34.304s-9.216 15.36-20.48 30.208c-11.264 14.848-20.48 28.672-20.48 30.208 0 7.68 56.832 1.024 82.944-9.728z" />
<glyph unicode="&#xe903;" glyph-name="cart" d="M118.784 866.816c-8.192-8.192-7.68-22.016 0.512-29.184 4.096-3.072 33.28-16.384 65.536-30.208l58.368-24.576 2.56-279.040 2.56-279.552 13.312-17.408c12.8-16.384 33.792-30.208 57.856-37.376 6.656-2.56 8.192-5.632 5.12-12.288-2.048-4.608-5.12-22.528-6.144-39.424-1.536-25.6 0-33.792 10.24-48.64 31.232-46.080 88.576-58.88 132.096-29.184 30.208 20.48 38.4 36.352 38.4 74.24 0 18.944-2.048 38.4-4.608 43.52-4.096 8.192 2.56 8.704 105.472 8.704h110.080l-6.656-25.088c-12.288-49.152 8.192-90.624 55.296-110.592 56.32-23.040 120.32 14.336 125.952 74.24 3.072 33.28-1.024 47.616-20.48 69.12-29.696 34.304-19.456 33.28-285.696 33.28-258.56 0-265.728 0.512-283.648 26.112-6.144 8.704-8.192 23.552-8.192 54.272v41.984l17.92-7.68c14.336-6.144 61.952-7.168 274.944-7.168 251.392 0 257.536 0 279.552 10.752 13.312 6.656 27.648 19.456 35.84 31.744l13.824 20.48 1.536 117.76c1.536 126.464 0.512 133.632-24.064 130.56l-13.312-1.536-2.56-115.2c-1.536-79.872-4.608-118.784-9.216-126.464-15.36-27.648-16.384-27.648-290.816-26.112l-253.952 1.536-14.848 16.896-14.848 16.384v206.848c0 165.888-1.536 207.872-6.656 212.48-8.704 6.656-140.8 61.952-148.992 61.952-3.584 0-8.704-2.56-12.288-6.144zM442.88 154.624c8.704-7.168 14.336-18.432 16.384-32.256 5.12-39.424-34.816-68.096-71.68-50.688-48.64 23.040-32.256 94.72 21.504 94.72 13.824 0 24.576-3.584 33.792-11.776zM818.688 159.232c27.136-14.336 33.792-49.664 13.312-73.728-15.36-18.432-33.792-24.064-56.32-16.384-35.328 11.776-45.056 55.808-18.432 82.432 16.896 16.896 38.4 19.456 61.44 7.68zM390.144 779.776c-4.608-4.608-6.144-49.152-6.144-168.96 0-155.136 0.512-162.816 9.728-167.936 6.656-3.072 74.752-5.12 186.88-5.12 153.6 0 177.664 1.024 184.32 8.192 7.168 6.656 8.192 29.184 8.192 165.888s-1.024 159.232-8.192 165.888c-6.656 7.168-31.232 8.192-188.416 8.192-133.12 0-181.76-1.536-186.368-6.144zM731.136 626.176c0.512-64.512 0-116.736-1.536-116.736-2.56 0-231.936 198.656-261.12 226.304-9.728 9.216-7.168 9.216 125.44 8.192l135.68-1.536 1.536-116.224zM567.296 592.896l124.416-109.056h-266.752v115.712c0 109.568 0.512 115.712 8.704 109.056 5.12-4.096 65.024-56.32 133.632-115.712z" />
<glyph unicode="&#xe904;" glyph-name="arrow-down" d="M103.936 704c-28.672-17.408-40.96-58.368-25.6-84.992 10.752-19.456 397.824-425.472 411.136-431.616 18.432-8.192 38.4-7.168 53.76 3.584 7.168 4.608 100.864 101.376 208.384 215.040 202.752 214.016 210.432 223.744 202.24 256.512-10.752 43.52-55.296 64.512-89.6 42.496-7.68-4.608-83.456-82.432-168.448-172.544-84.48-90.112-160.256-170.496-167.936-178.176l-14.336-14.336-173.056 182.272c-95.232 100.352-178.688 184.832-185.344 187.392-18.944 7.168-33.28 5.632-51.2-5.632z" />
<glyph unicode="&#xe905;" glyph-name="active" d="M223.232 834.56c-173.568-44.032-252.416-237.056-152.576-375.808 10.24-14.848 110.592-113.152 222.72-218.624 168.448-158.208 206.848-191.488 218.624-191.488s50.176 33.28 218.624 191.488c112.128 105.472 212.48 203.776 222.72 218.624 101.376 140.8 19.968 334.336-158.208 376.32-92.672 22.016-166.912-14.848-247.808-122.368-17.408-23.040-33.28-41.984-35.328-41.984s-17.92 18.944-35.328 41.984c-81.92 108.544-158.72 145.408-253.44 121.856z" />
<glyph unicode="&#xe906;" glyph-name="control" d="M483.84 885.76c-12.288-11.776-12.8-15.36-12.8-71.168v-59.392l-13.824-3.072c-66.048-14.336-114.688-39.936-161.792-83.968l-33.28-30.72-47.616 28.16c-26.624 15.36-53.248 28.16-59.904 28.16-15.872 0-41.984-26.624-41.984-43.008 0-18.432 17.408-34.816 66.56-62.976l43.52-24.576-9.728-28.16c-14.336-39.936-14.336-139.264 0-179.2l9.728-28.16-43.52-24.576c-49.152-28.16-66.56-44.544-66.56-62.976 0-16.384 26.112-43.008 41.984-43.008 6.656 0 33.28 12.8 59.904 28.16l47.616 28.16 33.28-30.72c47.104-44.032 95.744-69.632 161.792-83.968l13.824-3.072v-59.392c0-55.808 0.512-59.392 12.8-71.168 16.384-16.896 39.936-16.896 56.32 0 12.288 11.776 12.8 15.36 12.8 71.168v59.392l14.336 3.072c65.536 14.336 114.176 39.936 161.28 83.968l33.28 30.72 47.616-28.16c26.624-15.36 53.248-28.16 59.904-28.16 15.872 0 41.984 26.624 41.984 42.496 0 19.968-16.384 35.328-65.024 62.464l-45.568 25.088 10.24 28.16c8.192 22.528 10.24 41.984 10.24 90.112s-2.048 67.584-10.24 90.112l-10.24 28.16 45.568 25.088c48.64 27.136 65.024 42.496 65.024 62.464 0 15.872-26.112 42.496-41.984 42.496-6.656 0-33.28-12.8-59.904-28.16l-47.616-28.16-33.28 30.72c-47.104 44.032-95.744 69.632-161.28 83.968l-14.336 3.072v59.392c0 55.808-0.512 59.392-12.8 71.168-7.68 8.192-18.432 12.8-28.16 12.8s-20.48-4.608-28.16-12.8zM569.344 721.92c55.808-11.776 99.328-35.328 140.288-76.288 58.368-58.368 83.968-119.296 83.968-200.192s-25.6-141.824-83.968-200.192c-111.104-111.104-284.16-111.104-395.264 0-58.368 58.368-83.968 119.296-83.968 200.192s25.6 141.824 83.968 200.192c69.12 69.12 160.768 96.768 254.976 76.288zM439.808 689.152c-45.056-14.336-78.848-35.328-111.616-69.12-77.824-81.408-93.696-196.096-40.448-296.448 17.92-33.792 26.624-39.424 38.4-27.648 6.656 6.656 7.168 9.728 2.048 15.36-5.12 6.144-2.56 9.728 12.288 18.944 15.36 9.728 20.48 10.24 34.816 5.632 14.336-5.12 19.968-4.096 48.128 10.24 42.496 21.504 47.616 18.944 47.616-25.088 0-30.72 1.536-36.352 12.8-47.104 9.728-9.216 12.8-17.408 12.8-33.28v-21.504l-26.624 4.608c-32.768 5.632-66.56 20.48-89.6 37.888-19.456 14.848-34.816 14.336-34.816-0.512 0-12.8 37.376-38.4 78.336-54.272 40.448-15.872 111.616-18.944 152.576-7.168 47.104 13.312 86.016 36.864 118.784 71.168 61.952 64.512 84.992 146.944 65.024 232.448-7.68 33.28-24.064 69.632-33.28 75.264-3.072 2.048-18.432-4.096-33.792-12.8-25.088-14.336-30.72-15.36-44.544-10.24-14.336 4.608-19.968 3.584-48.128-10.752-42.496-21.504-47.616-18.944-47.616 25.088 0 30.72-1.536 36.352-12.8 47.104-9.728 9.216-12.8 17.408-12.8 34.304 0 21.504 0.512 22.016 14.336 18.944 36.864-8.192 55.808-13.824 68.608-20.48 15.872-8.192 29.696-4.608 29.696 8.192 0 9.216-29.696 24.576-69.12 35.328-31.232 8.704-98.304 6.656-131.072-4.096zM496.64 651.264c0-16.896-3.072-25.088-12.8-34.304-11.264-10.752-12.8-16.384-12.8-47.104 0-44.032-5.12-46.592-47.616-25.088-28.16 14.336-33.792 15.36-48.128 10.24-14.336-4.608-19.456-4.096-34.816 5.632l-17.92 11.264 13.312 15.872c17.408 20.992 50.688 48.128 75.264 60.416 15.36 8.192 64 22.528 81.92 24.576 2.048 0.512 3.584-9.216 3.584-21.504zM348.16 514.048c0-17.92 9.216-28.672 38.4-45.568 15.36-8.704 28.16-19.456 28.16-23.040s-12.8-14.336-28.16-23.040c-29.184-16.896-38.4-27.648-38.4-45.568 0-7.168-6.656-13.824-19.968-20.992-11.264-5.632-21.504-8.704-22.528-6.144-9.216 14.336-18.944 65.024-18.944 95.744s9.728 81.408 18.944 95.744c1.024 2.56 11.264-0.512 22.528-6.144 13.312-7.168 19.968-13.824 19.968-20.992zM729.088 509.952c10.752-35.84 10.24-93.184 0-129.024-4.608-15.36-9.216-29.184-10.752-31.232-1.024-2.56-11.264 0.512-22.528 6.144-13.312 7.168-19.968 13.824-19.968 20.992 0 17.92-9.216 28.672-38.4 45.568-15.36 8.704-28.16 19.456-28.16 23.040s12.8 14.336 28.16 23.040c29.184 16.896 38.4 27.648 38.4 45.568 0 10.752 35.328 33.792 41.984 27.136 1.536-2.048 6.656-15.872 11.264-31.232zM548.864 505.856c17.408-10.24 34.816-40.448 34.816-60.416s-17.408-50.176-34.816-59.904c-19.456-11.776-53.76-11.776-72.704-0.512-17.408 10.24-35.84 41.472-35.84 60.416 0 18.432 17.92 49.664 34.816 60.416 17.92 11.264 54.272 10.752 73.728 0zM602.112 345.6c26.624-13.824 32.256-14.848 46.592-9.728 14.336 4.608 19.456 4.096 34.816-5.632l17.92-10.752-16.384-20.48c-30.72-37.888-78.336-64-143.36-78.336-13.824-3.072-14.336-2.56-14.336 18.944 0 16.896 3.072 25.088 12.8 34.304 11.264 10.24 12.8 16.384 12.8 46.080 0 48.128 2.56 49.152 49.152 25.6z" />
<glyph unicode="&#xe907;" glyph-name="cloud" d="M517.12 890.368c-60.928-16.384-116.224-51.712-149.504-95.744l-16.896-22.528-35.84 0.512c-27.136 0-40.96-3.072-56.832-11.264-25.088-12.8-55.808-47.104-63.488-70.144-4.096-12.8-9.728-17.92-25.6-22.528-28.16-8.192-73.216-51.712-90.624-86.528-12.288-25.088-14.336-35.328-14.336-72.704s2.048-47.616 14.336-72.704c17.92-36.352 60.928-76.8 94.208-88.064 13.312-5.12 39.936-10.24 59.392-11.776l34.304-3.072v-162.304h-14.336c-10.752 0-16.384 3.584-20.48 12.8-7.68 16.384-35.328 33.28-54.784 33.28-22.528 0-48.128-17.92-57.344-39.424-23.552-56.832 48.128-110.080 95.232-70.656 8.192 7.168 16.896 17.92 18.432 23.040 2.56 8.192 7.68 10.24 27.648 10.24 13.312 0 26.624 2.56 30.208 6.144 8.704 8.704 8.704 205.824 0 212.992-3.584 2.56-27.136 6.144-52.736 7.168-68.608 3.584-108.032 28.16-133.632 83.456-34.816 74.24 6.144 168.448 83.968 194.048 24.064 8.192 27.136 10.752 31.744 29.184 6.656 24.576 32.768 54.784 54.784 64 18.944 8.192 51.712 9.216 69.632 2.56 14.848-5.632 18.432-3.584 38.4 26.112 23.040 33.28 53.76 58.88 98.304 80.384 37.376 17.92 39.936 18.432 99.84 18.432 60.416 0 61.952-0.512 101.376-18.944 47.104-22.528 92.672-65.024 113.152-105.472 15.36-30.72 28.672-77.312 28.672-101.888 0-15.872 2.048-18.432 24.064-27.648 36.864-15.872 55.296-32.256 70.144-61.952 24.576-49.152 15.36-108.544-22.528-146.432-22.528-22.528-42.496-32.256-74.752-35.328-31.744-3.584-43.008-12.288-32.256-25.088 5.12-6.656 12.288-7.68 31.232-5.632 84.992 10.24 148.48 85.504 140.8 167.936-4.608 53.248-39.424 103.936-84.992 124.928-17.408 7.68-21.504 12.288-24.064 27.648-15.36 94.72-65.536 167.424-143.872 209.408-56.832 30.208-131.584 39.424-190.976 23.552zM571.904 818.176c-6.656-6.144-3.584-20.992 4.608-24.064 4.608-1.536 14.848-3.072 22.528-3.072 24.576 0 69.12-19.456 93.696-40.96 23.040-20.48 35.84-25.088 41.984-15.36 10.24 16.384-45.056 61.44-94.208 76.8-32.256 10.24-62.464 13.312-68.608 6.656zM329.728 358.4c-7.168-18.944 1.024-23.040 46.592-23.040h43.52v-214.528l-15.36-8.192c-18.432-9.728-30.72-31.744-30.72-56.32s26.112-52.736 51.712-56.832c36.352-6.144 71.168 23.040 71.168 59.392 0 22.016-12.8 44.544-30.72 53.76l-15.36 8.192v116.224c0 83.968-1.536 118.272-6.144 122.88-4.096 4.096-24.576 6.144-58.88 6.144-42.496 0-53.76-1.536-55.808-7.68zM483.328 358.4c-7.168-18.944 1.024-23.040 46.592-23.040h43.52v-214.528l-15.36-8.192c-42.496-22.016-39.936-87.040 4.096-108.032 53.248-25.088 107.52 32.256 80.384 84.992-4.608 8.192-14.848 18.944-23.040 23.040l-15.36 8.192v116.224c0 83.968-1.536 118.272-6.144 122.88-4.096 4.096-24.576 6.144-58.88 6.144-42.496 0-53.76-1.536-55.808-7.68zM634.88 358.4c-5.12-6.144-5.12-9.216 0-15.36 4.608-5.632 17.408-7.68 49.152-7.68h43.008v-91.136c0-64 2.048-93.184 6.144-97.28 3.584-3.584 16.896-6.144 30.208-6.144 19.968 0 25.088-2.048 27.648-10.24 1.536-5.12 10.24-15.872 18.432-23.040 47.104-39.424 118.784 13.824 95.232 70.656-9.216 21.504-34.816 39.424-57.344 39.424-19.456 0-47.104-16.896-54.784-33.28-4.096-9.216-9.728-12.8-20.48-12.8h-14.336v91.136c0 64-2.048 93.184-6.144 97.28-9.728 9.728-108.544 8.192-116.736-1.536z" />
<glyph unicode="&#xe908;" glyph-name="facebook" d="M536.064 923.648c-45.568-10.752-82.432-40.448-100.352-81.92-14.336-32.256-20.992-81.408-20.992-159.232v-65.536h-112.64v-168.96h112.64v-481.28h167.424l3.072 111.104c2.048 61.44 3.584 169.984 3.584 241.152v129.024h61.44c55.296 0 61.44 1.024 61.44 9.216 0 4.608 3.584 39.936 7.68 77.824s7.68 72.192 7.68 75.776c0 4.608-17.408 6.144-70.144 6.144h-70.656l1.536 59.904c1.024 33.28 4.096 64 6.656 69.12 6.656 12.8 36.864 19.456 88.064 19.456h44.544v163.84l-85.504-0.512c-47.616-0.512-94.72-2.56-105.472-5.12z" />
<glyph unicode="&#xe909;" glyph-name="fun" d="M428.544 895.488c-49.152-8.704-104.96-30.208-153.6-58.368-50.176-29.696-126.976-108.032-156.16-159.744-83.968-147.968-82.432-319.488 4.608-466.432 28.16-48.64 102.912-123.392 151.552-151.552 148.48-87.552 325.12-88.576 472.064-2.048 44.544 26.112 112.64 91.648 142.848 137.216 88.576 131.584 101.376 305.152 34.304 447.488-88.576 185.856-292.352 290.304-495.616 253.44zM599.552 865.792c42.496-9.216 94.208-29.696 134.656-53.248 29.184-17.408 115.712-94.72 115.712-103.936 0-2.56-71.168-4.608-158.208-4.608h-158.208l-8.192-20.992c-9.728-24.064-17.92-24.064-26.112 1.024l-6.144 17.408-159.232 1.536c-88.064 0.512-159.744 3.072-159.744 5.12 0 5.12 70.144 72.704 92.16 89.088 39.424 28.672 113.664 60.416 164.352 70.144 35.84 7.168 132.096 6.144 168.96-1.536zM475.136 669.696c1.536-5.12-33.28-6.656-162.304-6.656-144.384 0-163.84 1.024-161.28 7.68s24.064 7.68 162.304 6.656c121.344-1.024 159.232-3.072 161.28-7.68zM872.448 670.72c2.56-6.656-17.408-7.68-160.768-7.68s-163.328 1.024-160.768 7.68c2.56 6.656 25.6 7.68 160.768 7.68s158.208-1.024 160.768-7.68zM481.28 603.136c0-57.344-43.52-119.808-101.376-146.432-36.864-17.408-101.376-15.36-140.288 3.072-55.296 27.136-96.256 89.6-96.256 146.944v25.6h337.92v-29.184zM880.64 606.72c0-57.344-40.96-119.808-96.256-146.944-25.088-12.288-35.328-14.336-72.704-14.336-51.712 0.512-78.848 10.752-115.2 44.032-32.768 30.208-49.664 65.024-52.736 108.544l-2.56 34.304h339.456v-25.6zM117.76 576.512c0-7.68 8.192-30.72 17.92-50.176 63.488-126.976 228.864-149.504 325.12-44.032 22.528 24.576 46.080 71.168 46.080 91.136 0 15.872 8.192 6.656 14.336-15.872 24.576-92.16 124.416-155.136 221.184-139.776 77.824 12.288 151.040 80.384 162.304 151.552 4.608 27.648 10.24 24.064 19.968-12.8 7.68-26.624 9.728-51.712 9.728-113.664 0-76.288-1.024-81.408-16.896-128-24.064-69.632-51.712-112.64-105.472-166.912-54.272-53.76-97.792-81.408-167.424-104.96-41.472-14.336-56.832-16.896-114.688-18.432-74.752-2.56-116.224 3.584-174.592 27.136-59.904 23.552-94.72 47.616-145.408 98.816-38.912 38.912-53.248 58.368-72.704 95.232-39.936 76.8-47.616 110.080-47.616 199.68 0 58.88 2.048 84.992 9.728 111.616 9.728 35.84 18.432 45.056 18.432 19.456zM302.080 312.32c-5.632-6.656-3.584-12.8 12.288-35.84 75.264-108.544 239.104-131.584 348.672-49.152 14.336 10.752 34.816 32.768 46.080 48.64 18.944 27.648 19.456 29.184 10.752 37.888-8.704 8.192-9.728 7.68-22.528-9.216-27.648-35.84-59.392-62.976-92.672-78.848-31.744-14.848-37.376-15.872-92.672-15.872-53.248 0-61.44 1.536-88.576 13.824-40.448 18.944-66.56 40.448-86.016 71.168-17.408 26.624-24.576 30.208-35.328 17.408z" />
<glyph unicode="&#xe90a;" glyph-name="iot" d="M545.28 892.416c-5.632-3.072-12.8-9.728-16.384-13.824-7.68-10.24-8.704-42.496-1.024-50.176 4.096-4.096-3.584-23.040-28.672-70.144-29.696-56.32-35.84-64.512-47.104-64.512-7.68 0-18.432-6.144-27.136-15.36l-14.336-15.36h-134.656l-13.312 15.36c-34.304 41.472-98.816-3.584-73.216-51.712 4.608-8.192-0.512-20.992-26.624-71.168-27.136-51.2-34.304-61.44-44.032-61.44-17.92 0-41.984-26.624-41.984-46.080s24.064-46.080 41.984-46.080c9.728 0 16.896-10.24 44.032-62.976 30.72-59.392 31.744-63.488 25.6-78.848-5.12-13.312-5.12-19.968 0-34.816 6.656-16.896 5.632-19.968-25.6-79.36-27.136-51.2-34.304-61.44-44.032-61.44-6.656 0-18.944-6.656-27.136-14.848-19.968-20.48-19.968-41.984 0-62.464 24.576-24.576 56.832-18.432 70.144 13.824 6.144 14.848 6.144 19.968 0.512 33.792-6.656 16.384-5.632 18.944 26.112 79.36 27.648 51.712 35.84 62.976 47.104 65.536 7.68 1.536 19.456 8.704 25.6 15.872 11.776 11.776 14.336 12.288 83.456 12.288 69.632 0 71.68-0.512 80.896-12.8 5.632-6.656 17.408-13.824 26.624-15.36 14.848-3.072 19.456-9.216 48.64-64.512 25.6-49.152 30.72-63.488 26.624-71.168-25.088-47.104 34.816-90.624 71.68-51.2l14.336 15.36h135.168l14.336-15.36c34.816-37.376 90.624-0.512 72.704 48.128-5.632 13.824-3.584 19.968 25.6 75.264 27.136 51.2 33.792 60.416 46.080 62.976 52.736 10.752 52.224 79.36-1.024 90.112-10.24 2.048-19.456 14.848-45.056 63.488-30.72 57.856-31.744 60.928-25.6 77.824 4.608 13.824 5.12 20.992 0 33.792-5.632 14.848-3.584 19.968 25.6 77.312 17.408 33.28 34.304 61.952 36.864 62.464 3.072 1.024 12.288 3.072 19.968 4.608 17.408 4.096 32.256 31.232 27.136 51.2-8.704 33.792-51.2 46.080-74.24 21.504-12.8-13.312-15.872-44.032-6.656-55.808 4.096-4.608-3.072-23.040-26.624-67.072-29.184-54.784-34.304-61.44-51.712-67.584-10.24-3.584-22.528-11.264-26.624-16.896-6.656-10.24-12.288-10.752-79.36-10.752-70.144 0-72.192 0-81.92 12.8-5.12 7.168-16.896 14.336-26.112 16.896-13.824 3.584-19.968 11.776-48.128 64.512-25.6 47.616-31.232 61.952-27.136 69.632 3.072 5.12 5.12 15.872 5.12 23.040s-2.048 17.92-5.12 23.040c-4.096 7.68 1.536 22.016 27.136 69.632 28.16 52.736 34.304 60.928 48.128 64.512 20.48 5.12 37.376 26.624 37.376 47.104-0.512 33.28-35.84 54.272-64 37.888zM424.96 622.080c8.704-9.216 19.456-15.36 27.136-15.36 11.264 0 17.408-8.192 47.104-64.512 24.576-46.592 32.768-66.048 28.672-70.144-6.656-6.656-7.168-36.864-1.024-49.152 3.584-6.656-3.072-23.552-27.648-69.632-29.696-56.32-33.792-61.44-49.152-65.024-9.728-1.536-22.016-9.216-27.648-16.384-10.24-13.312-11.776-13.312-79.36-13.312s-69.12 0-79.36 13.312c-5.632 7.168-17.92 14.848-27.136 16.384-15.36 3.072-19.456 9.216-49.152 65.024-30.72 59.392-31.744 61.952-25.088 78.336 5.632 13.312 5.632 19.456 0 32.768-6.144 15.36-5.12 18.944 26.624 79.36 30.208 56.832 34.816 62.976 47.104 62.976 9.216 0 17.92 5.12 26.112 14.848l11.776 15.36h68.096l68.608 0.512 14.336-15.36zM762.88 417.28c8.704-9.216 19.456-15.36 27.136-15.36 11.264 0 17.408-8.192 46.080-62.464 18.432-34.816 31.744-65.024 29.184-68.096-8.192-10.752-9.728-31.744-3.072-44.544 6.656-12.288 5.12-17.408-24.576-73.728-26.624-49.664-34.816-61.44-47.104-65.024-8.192-2.56-20.48-10.24-28.16-16.896-12.288-11.776-16.384-12.288-83.456-12.288-69.12 0-71.168 0.512-80.384 12.8-5.632 6.656-17.408 13.824-26.624 15.36-14.848 3.072-19.456 9.216-48.64 64.512-25.6 49.152-30.72 63.488-26.624 71.168 6.656 11.776 6.656 33.792 0.512 45.568-3.584 6.656 2.56 23.552 27.136 69.12 28.672 55.296 33.28 60.928 51.2 67.072 10.752 3.584 23.040 11.776 27.136 17.408 6.656 10.24 12.288 10.752 76.8 10.752h69.12l14.336-15.36z" />
<glyph unicode="&#xe90b;" glyph-name="like" d="M507.392 894.976c-5.632-5.12-22.528-35.84-36.864-68.096s-33.792-74.24-43.52-92.672c-17.408-35.328-85.504-140.288-94.208-145.408-3.072-1.536-18.944-5.632-36.352-8.192-41.984-6.656-74.24-24.064-103.424-55.296-45.568-48.64-47.104-55.296-47.104-205.312v-130.56l13.824-29.184c25.088-53.76 72.704-94.72 126.464-109.056 13.824-3.584 38.912-14.848 55.296-25.088 50.688-31.232 72.704-33.792 282.112-33.792 195.584 0 206.848 1.024 233.472 24.576 13.824 12.288 28.672 46.592 28.672 67.072 0 22.016-17.92 60.416-31.744 67.584-9.728 5.632-9.728 6.144 5.12 21.504 35.84 37.376 35.328 91.648-1.024 125.952l-12.288 11.264 12.8 12.8c15.36 15.36 27.136 43.008 27.136 63.488 0 19.456-12.288 50.176-26.624 65.024l-10.752 11.264 13.312 15.36c37.888 45.568 27.648 110.080-22.528 138.24-16.896 9.728-27.648 10.752-115.712 10.752-70.656 0-103.936-2.048-121.856-7.68-13.824-4.096-26.112-6.656-27.136-5.632s7.68 17.408 19.456 35.84c11.776 18.944 24.576 44.544 28.672 57.856 20.992 69.12-5.12 153.088-56.832 183.808-25.088 14.336-43.52 15.872-58.368 3.584zM563.2 853.504c20.992-20.48 35.84-59.904 35.84-93.184 0-35.328-13.824-64-78.848-168.448-62.464-99.328-86.016-143.36-100.352-186.88-5.12-16.384-5.12-20.48 1.536-27.136 13.312-13.312 22.528-4.096 36.864 38.912 12.8 38.912 51.2 105.472 76.288 132.608 5.632 6.656 22.016 17.92 35.328 25.088l25.088 12.288-4.608-11.776c-2.048-6.656-4.096-25.088-4.096-40.96 0-22.528 2.56-32.768 12.288-45.568 7.68-10.24 10.24-17.408 6.656-18.944-13.312-4.096-32.768-24.064-41.984-42.496-19.456-37.376-7.168-89.088 26.112-112.128 9.728-6.656 18.432-12.8 18.944-13.312 1.024-0.512-3.072-8.192-9.728-16.896-26.112-35.328-13.824-100.352 23.552-123.392l16.896-10.752-12.288-21.504c-15.36-26.624-15.872-60.416-2.56-87.552l10.24-19.456-111.616 2.048-111.616 1.536-70.656 35.84-8.192 33.792c-9.728 40.96-12.8 45.568-25.6 45.568-11.264 0-12.8-16.896-4.608-45.568 4.608-16.384 4.608-16.896-8.704-13.312-43.008 10.752-78.848 38.912-101.376 79.872l-15.36 27.648v256l13.824 26.112c25.088 47.616 69.12 76.288 126.976 82.432 22.528 2.048 32.768 5.632 36.352 12.288 2.56 5.12 17.408 26.624 32.768 48.128 42.496 59.392 102.912 173.056 130.56 246.272 7.168 17.92 23.552 15.36 46.080-7.168zM809.472 596.48c37.376-10.24 55.808-52.224 38.4-86.016-14.336-27.648-29.184-31.744-113.152-31.744-56.832 0-78.336 2.048-89.6 7.68-45.056 23.552-36.864 95.232 12.288 109.568 22.016 6.656 129.536 6.656 152.064 0.512zM837.632 426.496c24.576-27.136 24.576-52.736 0-79.872l-17.408-18.944-89.6-1.536c-101.376-2.048-119.296 2.048-136.704 30.72-14.336 23.552-13.312 46.080 3.584 65.536 7.168 9.216 18.432 18.432 24.064 20.992 6.144 2.048 52.736 3.584 104.448 3.072l94.208-1.024 17.408-18.944zM824.32 286.72c37.888-19.456 39.936-76.8 4.096-101.888-16.384-11.776-161.28-11.776-183.296-0.512-17.408 9.216-30.72 31.744-30.72 52.224 0 18.432 17.408 46.592 32.256 52.736 6.144 2.56 45.568 4.608 87.040 4.608 58.368 0.512 79.36-1.536 90.624-7.168zM815.616 138.752c23.040-9.728 34.816-24.576 37.888-48.128 3.584-25.088-8.192-49.152-29.184-59.904s-127.488-10.752-148.48 0c-18.432 9.728-30.72 31.744-30.72 55.808 0 20.992 24.064 52.224 42.496 55.808 28.16 5.632 112.128 3.072 128-3.584z" />
<glyph unicode="&#xe90c;" glyph-name="line-arrow-right" d="M635.392 762.368c-12.8-10.752-15.872-16.896-15.872-34.304 0-20.992 2.048-23.552 103.424-124.928l103.936-103.936h-378.368c-343.040 0-378.88-1.024-392.192-8.704-28.672-16.896-33.28-49.152-10.752-74.24l14.848-16.896 760.832-3.072-100.864-100.864c-100.864-101.376-103.936-105.472-101.376-136.704 1.536-14.336 29.184-38.4 44.544-38.4 7.168 0 18.944 3.072 26.624 7.168s79.36 73.216 159.744 153.6c142.848 143.36 145.92 146.432 145.92 166.912s-3.072 23.552-154.112 174.080c-144.896 144.896-154.624 153.6-172.032 153.6-12.8 0-23.552-4.096-34.304-13.312z" />
<glyph unicode="&#xe90d;" glyph-name="linkdin" d="M61.44 872.96c-9.216-9.216-10.24-16.896-10.24-76.8 0-89.6-2.56-87.040 89.6-87.040s89.6-2.56 89.6 88.576c0 89.088 4.096 85.504-88.576 85.504-63.488 0-71.168-1.024-80.384-10.24zM696.32 626.688c-41.472-6.656-97.792-36.352-135.168-71.68-17.92-16.384-33.792-28.672-35.84-26.624-1.536 1.536-3.072 16.384-3.072 32.768 0 20.992-2.56 32.256-9.728 40.96-9.216 11.776-12.8 12.288-74.752 12.288s-65.536-0.512-74.752-12.288c-9.216-11.264-9.728-24.064-9.728-292.864 0-274.432 0-281.088 10.24-291.328 9.216-9.216 16.896-10.24 80.896-10.24 61.44 0 72.192 1.024 78.848 9.216 6.656 7.168 8.704 34.304 10.752 167.424 3.072 159.744 6.144 192.512 22.528 226.304 25.6 54.784 97.792 88.576 155.648 73.216 28.16-7.68 62.464-40.96 71.168-69.12 4.608-13.824 7.68-80.384 9.728-206.336 3.072-176.64 3.584-186.368 12.8-193.536 7.68-5.12 27.648-7.168 78.336-7.168 61.44 0 69.12 1.024 78.336 10.24 9.728 9.728 10.24 16.896 10.24 201.216 0 199.168-3.072 240.128-20.992 287.232-22.528 60.928-86.528 108.032-163.328 120.32-37.888 6.144-52.736 6.144-92.16 0zM76.8 613.376c-4.096-1.536-11.776-6.144-16.384-10.752-8.704-7.168-9.216-27.648-9.216-291.328 0-276.48 0-283.136 10.24-293.376 9.216-9.216 16.896-10.24 80.896-10.24 62.464 0 72.192 1.024 79.36 9.216 7.68 8.704 8.704 36.352 8.704 293.376 0 237.056-1.024 285.696-7.168 294.4-6.656 8.704-14.848 9.728-73.216 10.752-35.84 0.512-69.12 0-73.216-2.048z" />
<glyph unicode="&#xe90e;" glyph-name="location" d="M456.192 913.92c-121.856-25.6-209.92-101.376-248.832-213.504-34.304-97.792-28.672-208.896 14.336-293.376 14.848-28.672 281.6-418.304 291.328-424.96 4.608-3.584 274.432 385.536 293.888 424.96 43.52 86.016 49.152 195.584 14.848 293.376-44.544 129.024-156.672 210.944-294.4 216.064-26.624 1.024-58.88 0-71.168-2.56zM552.448 706.048c57.856-16.896 94.72-78.336 82.432-137.216-15.36-74.24-98.304-116.736-166.4-85.504-98.304 45.056-90.112 190.976 12.8 223.232 30.208 9.216 38.912 9.216 71.168-0.512z" />
<glyph unicode="&#xe90f;" glyph-name="person" d="M423.936 916.992c-12.8-3.584-29.184-9.728-35.84-14.336-6.144-4.096-21.504-8.704-33.792-10.752-38.4-4.608-72.192-35.84-87.040-79.872-9.216-25.6-7.168-88.064 4.608-151.552 5.632-30.72 12.288-81.408 14.848-112.64 3.072-30.72 8.704-69.632 12.8-86.528 18.944-73.216 73.216-142.848 135.68-173.568 29.184-14.336 37.888-16.384 76.8-16.384s47.616 2.048 76.8 16.384c62.464 30.72 117.248 100.864 135.68 173.568 4.096 16.896 9.728 60.416 12.8 96.768 2.56 36.864 8.704 81.408 12.8 99.84 16.896 70.656 14.848 206.848-3.584 228.864-3.072 4.096-17.408 6.656-36.864 6.656-16.896 0-69.12 7.168-114.688 15.36-89.6 16.384-132.608 18.432-171.008 8.192zM598.016 878.080c46.080-8.704 93.696-15.36 105.984-15.36 20.992 0 22.016-0.512 25.088-18.944 8.192-50.688-1.024-190.976-12.8-190.976-2.56 0-5.632 5.632-7.68 12.8-3.584 14.848-23.040 26.112-73.728 43.008-56.832 18.432-114.688 26.112-194.56 25.6-105.472-1.024-100.864 0.512-119.808-47.104-14.848-37.888-15.872-39.424-19.968-25.6-7.68 25.6-10.752 126.464-4.096 145.92 9.216 28.16 35.328 49.664 66.048 54.784 14.336 2.048 29.696 7.168 33.792 10.24 13.824 11.264 50.688 20.48 84.992 20.48 18.432 0.512 71.168-6.656 116.736-14.848zM499.2 704c63.488-6.144 104.448-14.848 147.968-30.72 28.672-10.752 30.208-12.288 44.544-44.544 48.128-107.52-19.456-278.528-125.952-318.464-82.432-30.72-169.472 12.288-217.088 107.008-40.96 81.408-40.448 161.792 2.048 264.704l8.704 21.504 33.792 2.048c18.944 1.024 37.888 2.048 41.984 2.56s33.28-1.536 64-4.096zM321.024 275.968c-8.704-13.312-18.432-26.624-21.504-30.72-2.56-3.584-35.84-13.312-73.216-21.504-51.712-11.264-73.216-18.432-89.6-29.696-45.568-32.256-70.144-82.432-70.144-143.36 0-40.96 5.632-55.808 26.624-68.608 16.384-9.728 26.112-10.24 418.816-10.24s402.432 0.512 418.816 10.24c20.992 12.8 26.624 27.648 26.624 68.608 0 60.928-24.576 111.104-70.144 143.36-16.384 11.264-37.888 18.432-89.6 29.696-37.376 8.192-70.144 17.92-73.216 21.504-2.56 4.096-12.8 17.408-21.504 30.72-11.776 16.896-19.968 23.552-28.672 23.552-8.192 0-36.352-20.992-86.016-64-40.448-34.816-74.752-64-76.288-64s-35.84 29.184-76.288 64c-49.664 43.008-77.824 64-86.016 64-8.704 0-16.896-6.656-28.672-23.552zM426.496 204.8c32.768-28.16 59.904-53.76 59.904-56.32 0-3.072-13.824-18.944-30.208-35.328l-30.208-29.696-35.328 47.616c-73.216 100.352-68.608 92.672-60.928 103.936 3.584 6.144 9.728 15.872 13.312 22.016 8.704 13.312 3.584 16.384 83.456-52.224zM697.344 220.672c-8.192-13.824-94.208-131.072-97.792-133.12-5.632-3.584-63.488 56.32-61.44 62.464 1.024 3.072 31.744 31.232 68.096 61.952l66.56 56.832 13.824-21.504c7.68-11.776 12.8-23.552 10.752-26.624zM355.84 128c59.904-83.968 66.048-88.576 88.064-68.096 18.432 16.896 24.576 6.656 16.896-28.672l-5.632-28.672h-168.96c-107.008 0-172.544 2.048-179.2 5.12-8.192 4.608-9.728 11.264-9.728 39.936 0 18.944 2.56 43.008 5.12 53.248 6.656 24.064 33.792 59.904 54.272 71.68 13.824 8.192 114.176 33.28 135.168 34.304 4.096 0 32.768-35.328 64-78.848zM792.064 194.56c68.608-14.848 84.48-22.528 107.52-52.736 20.48-27.136 27.136-50.176 27.136-94.208 0-28.672-1.536-35.328-9.728-39.936-6.656-3.072-72.192-5.12-179.2-5.12h-168.96l-5.632 28.672c-7.68 35.328-1.536 45.568 16.896 28.672 22.016-20.48 28.16-15.872 88.064 68.096 31.232 43.52 57.856 79.36 60.416 79.36 2.048 0 30.72-5.632 63.488-12.8z" />
<glyph unicode="&#xe910;" glyph-name="play" d="M218.624 862.72c-25.6-20.48-25.6-20.992-23.040-420.352 2.56-357.376 3.072-372.736 12.8-389.12 11.776-20.992 32.256-29.184 52.224-21.504 28.16 10.24 544.768 367.104 554.496 382.976 14.848 23.552 9.728 55.808-11.776 76.8-20.992 19.968-526.336 369.152-545.28 376.32-18.432 7.168-24.576 6.656-39.424-5.12z" />
<glyph unicode="&#xe911;" glyph-name="quotes" d="M366.080 805.888c-85.504-59.904-176.64-145.92-227.328-214.016-36.864-50.176-78.336-132.096-90.112-179.2-11.776-46.080-15.36-110.080-8.192-145.408 15.36-71.68 75.776-153.6 136.192-183.296 94.208-46.080 220.16-5.632 275.456 88.576 31.232 53.76 37.888 142.848 14.848 202.24-23.040 60.416-76.288 109.568-153.6 142.336-24.064 9.728-39.936 19.968-40.96 25.088-4.096 19.456 46.080 87.040 114.688 154.624 37.888 36.864 68.608 70.656 68.608 75.264 0 13.824-32.768 52.224-46.592 53.76-8.192 1.024-23.040-6.144-43.008-19.968zM862.208 798.208c-158.208-113.664-268.288-249.344-304.128-376.832-15.872-54.272-18.944-126.976-7.68-165.376 29.184-102.4 112.64-182.784 196.608-190.464 131.584-12.288 241.152 89.6 241.152 223.744 0 104.448-59.904 183.808-173.568 229.888-24.064 9.728-34.304 16.896-35.328 24.064-3.072 20.48 49.152 89.6 117.248 156.16 36.352 35.328 66.048 68.096 66.048 72.704 0 4.096-7.68 17.92-16.896 30.208-24.064 31.744-34.304 31.232-83.456-4.096z" />
<glyph unicode="&#xe912;" glyph-name="rocket" d="M723.456 849.92c-71.168-16.384-125.44-49.152-196.096-117.76l-48.64-47.616-100.864-16.896-100.352-16.384-67.072-71.168c-37.888-39.936-67.072-75.264-67.072-80.896 0-15.872 16.384-20.48 72.704-20.48 62.976 0 71.168-3.584 52.224-20.992-23.040-21.504-24.576-28.672-10.24-46.080l13.312-15.36-28.16-45.568c-15.36-24.576-28.16-49.152-28.16-53.76 0-10.752 146.432-166.4 156.672-166.4 4.096 0 25.6 12.8 47.616 28.16s42.496 28.16 45.056 28.16c3.072 0 9.216-4.608 14.336-10.24 13.312-14.848 22.528-12.8 44.544 8.704l19.456 18.944v-61.952c0-66.56 4.608-88.576 18.432-88.576 5.12 0 33.792 26.112 64 57.856 89.088 94.208 79.872 74.752 97.28 196.608l15.872 105.984 37.376 39.936c64 68.096 100.352 135.68 118.272 219.136 8.192 39.424 8.704 105.472 0 140.8-4.608 20.48-8.704 27.136-20.992 32.768-21.504 10.24-109.568 12.288-149.504 3.072zM857.088 811.52c3.584-3.584 5.632-29.696 5.632-68.096 0-51.712-2.048-68.608-11.776-97.792-26.112-77.824-46.592-108.544-137.216-204.288-54.784-57.856-68.608-75.264-67.584-85.504 2.048-18.432 17.408-18.944 35.84-1.536 13.312 11.776 15.36 12.8 12.8 4.096-1.536-5.632-6.656-39.936-11.776-76.288l-9.216-66.048-46.592-49.152-47.104-48.64-7.168 120.832 28.672 29.696c15.36 16.384 28.16 31.232 28.16 33.28 0 8.192-11.264 23.040-17.408 23.040-4.096 0-31.744-25.6-61.952-57.344l-54.784-56.832-44.544 48.128-45.056 48.128 70.144 74.24c134.144 141.824 148.48 157.696 148.48 164.864 0 8.704-10.24 19.456-18.432 19.456-3.072 0-54.784-52.224-114.688-115.712l-109.056-115.2-45.568 45.056c-24.576 24.576-45.056 46.080-45.056 47.616s24.064 28.672 53.76 60.416c29.696 31.232 53.76 59.392 53.76 61.952 0 5.632-14.336 20.992-19.456 20.992-2.048 0-17.408-13.312-34.304-29.696l-30.72-29.184-55.296 1.536c-30.208 1.024-54.784 3.072-54.784 5.12 0.512 2.048 20.48 24.576 45.056 50.688l44.544 47.104 61.952 10.24c34.304 6.144 66.048 10.752 71.168 10.752 8.704 0 8.704-0.512 0-10.24-9.216-10.24-9.216-10.752 3.072-23.552l12.8-12.288 70.656 74.24c92.16 97.28 142.336 131.072 220.672 148.992 34.304 7.68 113.664 5.632 122.368-3.072zM327.168 338.432c14.336-15.36 26.112-29.184 26.112-31.232 0-1.536-2.56-7.168-6.144-12.288-4.608-7.68-4.608-11.776 0.512-17.92 7.68-9.216 24.064-10.752 29.184-2.56 3.584 6.144 58.368-44.544 58.368-54.272 0-3.072-13.824-15.36-30.72-26.624l-30.208-21.504-59.904 63.488c-32.768 35.328-58.368 65.536-57.344 67.584 5.12 12.8 37.888 62.976 40.448 62.976 1.536 0 14.848-12.288 29.696-27.648zM688.128 748.032c-8.704-4.096-22.528-15.872-30.72-26.624-12.8-16.896-14.848-23.552-14.848-53.248s2.048-36.352 14.848-53.248c33.792-44.544 95.232-45.056 129.024-0.512 28.672 37.888 19.456 97.792-19.456 126.976-17.408 12.8-57.856 16.384-78.848 6.656zM756.736 700.928c15.872-17.92 15.36-48.128-1.024-67.072-17.408-19.968-50.176-19.968-67.584 0-21.504 25.088-13.312 68.608 15.36 80.384 16.384 7.168 40.448 1.536 53.248-13.312zM161.28 221.696c-41.472-45.056-47.616-61.44-23.040-64.512 10.24-1.024 19.968 6.656 50.176 39.424 37.376 41.472 41.984 49.664 30.72 60.928s-17.92 6.656-57.856-35.84zM203.776 148.992c-50.688-53.76-57.344-67.584-41.984-80.384 7.68-6.144 14.848-0.512 64 51.2 30.72 31.744 55.808 60.928 55.808 64 0 8.704-10.752 18.432-19.968 18.432-4.608 0-30.72-24.064-57.856-53.248zM274.432 100.352c-39.936-41.472-45.056-52.736-27.648-64 7.68-4.608 15.36 1.024 50.176 35.328 32.768 32.256 40.96 43.52 39.936 53.76-3.072 25.088-19.968 18.432-62.464-25.088z" />
<glyph unicode="&#xe913;" glyph-name="round-next" d="M427.52 927.232c-190.464-36.864-336.384-173.056-387.584-361.472-16.896-62.464-16.896-173.056 0-235.52 47.616-176.128 178.176-306.688 354.304-354.304 62.464-16.896 173.056-16.896 235.52 0 176.128 47.616 306.688 178.176 354.304 354.304 16.896 62.464 16.896 173.056 0 235.52-47.616 175.104-178.688 306.688-351.744 353.28-52.736 14.336-153.6 17.92-204.8 8.192zM613.376 872.96c266.752-64 410.112-358.912 295.424-607.232-71.68-156.16-224.768-253.44-396.8-253.44-203.264 0-377.856 137.216-424.96 334.336-13.824 57.856-13.824 144.896 0 202.752 37.888 158.208 163.328 284.672 321.024 323.072 56.32 13.824 148.48 14.336 205.312 0.512zM569.344 600.576c-13.312-13.312-5.632-27.648 43.52-76.8l50.176-50.176h-184.832c-172.544 0-185.344-0.512-193.024-9.216-11.264-12.288-10.752-23.040 0.512-33.28 8.704-7.68 29.696-8.704 193.536-8.704h183.808l-50.176-50.176c-49.152-49.152-56.832-63.488-43.52-76.8 14.848-14.848 28.672-5.632 101.888 68.096 40.448 40.96 74.752 78.336 75.264 82.944 2.56 11.264-146.432 160.256-160.256 160.256-6.144 0-13.312-2.56-16.896-6.144z" />
<glyph unicode="&#xe914;" glyph-name="round-tick" d="M409.6 878.592c-166.912-36.864-291.328-154.624-338.944-321.536-16.384-57.344-16.384-165.888 0-223.232 48.128-168.448 174.080-286.72 341.504-321.536 233.472-48.64 464.896 99.328 520.192 331.264 24.064 102.4 1.536 277.504-31.744 244.224-4.608-4.608-3.584-14.848 3.584-43.52 14.336-55.296 13.312-151.552-2.048-205.824-33.792-117.76-121.344-220.672-228.352-269.312-79.872-36.352-189.44-46.592-272.384-25.6-52.224 13.312-123.904 48.64-164.352 81.92-65.024 52.736-118.784 138.24-139.776 222.208-13.824 55.296-13.824 140.288 0 195.584 20.992 83.968 74.752 169.472 139.776 222.208 40.448 33.28 112.128 68.608 164.352 81.92 133.632 33.792 296.96-10.752 386.56-104.448 18.944-19.456 34.816-23.552 39.936-10.24 6.144 16.384-66.048 76.8-130.048 109.056-83.968 41.984-198.656 56.832-288.256 36.864zM896 750.080c-25.6-23.552-9.216-42.496 18.432-20.992 14.336 11.264 27.648 9.216 27.648-4.096 0-10.24-496.64-507.392-506.88-507.392-10.752 0-204.8 195.072-204.8 206.336 0 5.12 3.584 10.24 8.192 12.288 5.632 2.048 34.304-23.040 98.816-87.552 49.664-49.664 93.696-90.112 97.792-90.112s104.448 96.768 222.208 214.528c211.968 211.968 228.352 230.912 199.168 230.912-5.12 0-98.304-89.6-215.040-205.824l-206.336-206.336-86.528 86.528c-81.408 81.408-87.040 86.016-105.984 86.016-32.768 0-51.712-30.208-37.376-58.88 8.192-16.384 194.048-202.752 210.944-211.456 8.704-4.608 20.48-6.656 28.672-4.608 9.216 2.048 94.72 83.456 270.848 260.096 234.496 234.496 257.024 258.56 257.024 273.92 0 39.936-45.568 55.808-76.8 26.624z" />
<glyph unicode="&#xe915;" glyph-name="search" d="M452.096 914.944c-3.072-2.048-6.656-17.408-7.68-34.304l-1.536-30.72-30.72-3.584c-41.984-5.632-101.376-26.112-140.8-49.152-44.032-25.6-105.984-87.552-132.608-132.608-116.736-196.608-45.056-449.024 155.648-550.912 51.2-25.6 87.040-34.816 151.040-37.888 71.68-3.584 123.392 7.68 186.88 39.424l40.448 20.48 79.872-78.848c65.024-65.024 82.944-79.872 98.304-82.432 39.936-7.68 74.752 13.312 86.528 52.736 11.776 39.936 2.56 55.296-82.432 141.824l-75.264 76.8 19.456 38.4c21.504 41.472 40.448 107.52 40.448 139.264v19.456h30.208c42.496 0 44.032 3.072 36.864 67.584-19.456 172.544-128.512 316.928-287.744 379.392-52.736 20.992-150.528 35.84-166.912 25.088zM581.12 862.208c110.080-33.28 199.168-111.104 250.88-220.16 20.48-44.032 38.4-109.056 38.4-141.312v-22.016h-173.056l-8.192 37.376c-15.872 70.656-61.44 128.512-126.464 159.744-20.48 9.728-46.592 18.944-58.88 20.992l-22.528 3.072v181.76l32.256-4.608c17.408-2.048 47.616-8.704 67.584-14.848zM445.44 756.224v-55.296l-29.696-6.144c-60.416-12.288-114.688-50.688-150.016-104.448-26.624-41.984-36.864-83.968-34.304-143.36 1.536-42.496 4.096-52.736 20.992-87.552 31.744-67.072 90.112-114.688 161.792-131.584 55.808-13.312 132.608 2.56 179.712 36.352l21.504 15.36 33.792-38.912-14.848-15.36c-18.432-19.456-18.432-28.16-2.048-43.52 7.168-6.656 12.8-13.312 12.8-15.36 0-5.12-61.952-34.304-94.72-44.032-47.104-14.336-132.608-13.312-181.76 2.048-61.44 19.456-95.744 40.448-143.872 88.064-48.128 48.128-72.192 87.552-92.16 153.6-14.848 49.152-16.384 134.144-2.56 184.32 26.624 98.816 92.672 180.224 181.76 224.768 33.792 17.408 94.72 35.328 119.808 35.84l13.824 0.512v-55.296zM445.44 552.448l2.56-107.008 105.984-1.536 105.472-1.024-6.144-27.136c-18.432-79.36-81.92-138.752-162.816-153.088s-167.936 34.304-205.824 113.664c-14.336 30.208-15.872 37.888-15.872 84.48 0 45.056 1.536 54.784 14.336 81.408 27.136 57.856 63.488 90.624 123.904 111.616 13.824 5.12 28.16 8.192 30.72 7.168 3.072-0.512 6.144-43.52 7.68-108.544zM541.696 644.608c54.784-24.064 106.496-90.624 112.64-143.872l2.56-22.016h-175.616v184.32l16.896-3.072c8.704-2.048 28.672-8.704 43.52-15.36zM803.84 428.544c0-25.088-18.944-90.624-35.84-123.904l-15.872-31.744-14.336 13.312c-17.408 16.896-29.696 16.896-47.616-0.512l-14.336-13.824-17.92 17.408c-17.408 16.896-17.408 16.896-8.192 30.208 17.92 25.6 35.328 64.512 41.472 94.208l5.632 29.184h107.008v-14.336zM809.984 160.768c48.64-50.688 90.624-97.28 92.672-103.424 8.704-23.552-19.456-53.248-44.544-46.592-7.68 1.536-48.64 40.448-103.424 97.792l-90.624 94.208 25.088 25.6c13.312 13.824 26.112 25.088 28.16 25.088s43.52-41.472 92.672-92.672zM386.56 618.496c-43.008-23.040-81.408-69.12-78.336-93.696 2.56-21.504 21.504-19.456 36.352 3.584 15.36 23.552 34.816 41.984 64 59.904 22.016 13.824 26.112 22.016 15.36 32.768-8.192 8.192-18.944 7.68-37.376-2.56z" />
<glyph unicode="&#xe916;" glyph-name="toobler-round" d="M267.776 737.28c-88.064-18.944-162.816-77.312-203.776-158.208-58.368-116.224-36.352-251.392 55.808-344.064 88.576-88.576 214.528-113.664 328.192-64.512 16.896 7.168 31.744 13.824 32.768 14.336 1.024 1.024-5.12 7.68-13.824 14.848s-24.064 24.576-34.304 38.4l-18.432 25.088-22.528-8.192c-16.384-5.12-37.376-7.168-70.656-5.632-38.912 1.024-52.224 4.096-75.776 15.872-36.864 17.92-72.704 53.76-93.696 93.184-14.848 28.672-15.872 34.304-15.872 84.48 0 50.688 1.024 56.32 16.384 87.552 19.968 40.96 56.832 76.8 97.792 95.744 25.6 12.288 35.328 13.824 80.384 13.824s54.784-1.536 80.384-13.824c66.56-31.232 109.568-92.672 117.248-167.936 4.608-48.128 20.48-86.528 48.128-117.248 10.752-11.264 20.992-20.992 23.040-20.992s9.216 16.896 15.872 37.376c9.728 29.696 12.288 47.104 11.776 90.624-0.512 85.504-27.648 148.48-89.088 209.92-70.656 70.656-172.544 100.352-269.824 79.36zM640 737.792c-30.208-6.656-93.184-33.28-91.136-38.4 1.024-1.536 13.824-19.968 29.184-40.448 20.48-27.136 29.696-36.352 35.84-33.792 82.944 33.28 169.984 17.408 227.328-41.984 44.032-45.056 65.536-111.616 55.296-168.448-12.288-65.536-52.736-120.32-110.592-148.992-28.16-13.824-34.816-14.848-87.040-14.848-53.248 0-57.856 1.024-87.040 16.384-60.928 31.744-100.352 89.6-110.080 160.768-6.656 48.128-11.776 69.12-22.528 92.16-11.264 23.552-42.496 54.272-48.64 47.616-13.824-13.824-27.136-72.192-27.136-119.296 0-76.288 15.872-124.928 58.88-183.296 73.216-98.816 201.216-141.824 320-107.52 54.272 15.872 91.648 39.424 133.12 82.944 54.272 56.832 82.944 126.976 82.944 203.264 0 48.64-8.192 81.92-31.744 132.096-57.856 120.832-197.632 190.464-326.656 161.792z" />
<glyph unicode="&#xe917;" glyph-name="twitter" d="M639.488 815.104c-53.248-14.848-97.28-53.248-121.344-105.472-10.752-22.528-13.824-38.4-15.36-74.24l-2.048-45.568-34.304 3.072c-109.568 9.728-226.816 67.584-313.856 155.136l-38.4 38.4-9.728-22.016c-7.68-16.896-9.728-33.28-9.728-73.216 0-44.544 1.536-54.784 13.312-79.872 7.68-15.872 24.064-39.424 36.352-52.736 20.992-21.504 22.016-23.552 10.752-23.552-6.144 0-23.552 4.608-38.4 10.24-14.336 5.632-27.648 9.216-28.672 8.192-5.12-5.632 11.264-65.024 26.112-91.648 20.48-37.376 53.248-66.56 93.184-82.944l29.696-11.776-24.064-3.584c-13.312-2.048-31.744-2.56-41.472-1.024-16.896 2.56-17.408 2.56-12.288-10.752 9.216-23.552 24.576-45.056 47.616-66.56 28.672-26.112 48.64-36.864 90.112-47.104l33.28-8.192-36.864-22.016c-63.488-37.888-146.432-59.904-209.408-55.808-24.576 1.536-26.624 0.512-18.944-5.632 21.504-16.384 97.792-48.128 143.872-59.904 148.48-37.888 307.712-10.752 435.712 73.728 43.52 28.672 108.544 95.744 140.8 144.896 53.76 82.944 81.408 163.84 91.136 267.776l6.144 60.416 42.496 43.008c40.96 41.984 52.224 58.368 33.792 50.688-15.36-6.656-75.264-23.040-83.456-23.040-4.096 0 1.024 6.656 11.776 15.872 20.48 16.896 46.592 51.712 54.784 73.216l5.12 13.312-19.968-10.24c-11.264-5.632-37.888-15.872-59.904-23.552l-39.424-12.8-15.872 15.36c-38.4 37.376-117.248 55.296-172.544 39.936z" />
<glyph unicode="&#xe918;" glyph-name="web-mob" d="M150.016 888.32c-6.656-2.56-16.384-12.288-22.016-21.504-9.728-16.384-10.24-25.6-10.24-420.352 0-442.88-1.024-424.96 30.72-441.344 12.8-6.656 61.44-7.68 361.984-7.68 330.752 0 347.648 0.512 363.008 9.728 33.28 19.968 32.768 16.896 32.768 312.832 0 264.704 0 267.776-11.264 287.232-15.36 27.648-34.816 35.328-90.624 35.328h-46.592v216.064l-34.816 34.816-281.088-0.512c-154.112 0-285.696-2.048-291.84-4.608zM724.992 855.552c7.68-10.752 10.24-120.832 4.096-181.76-3.584-30.208-4.096-31.232-17.92-31.232h-14.848v53.248c0 43.52-1.536 53.76-8.192 56.32-26.112 10.24-56.32-4.096-43.008-19.968 3.584-4.096 10.752-7.68 15.872-7.68 8.704 0 9.728-4.096 9.728-40.96v-40.96h-42.496c-50.176 0-80.896-12.288-99.328-40.448-11.776-17.408-11.776-17.92-11.776-226.304v-209.408h-322.56l1.024 277.504 1.536 278.016 399.36 5.12 1.536 11.264c1.024 8.192-1.536 12.288-10.24 14.336-6.656 1.536-102.912 2.048-214.016 1.536l-202.24-1.536v-614.4l173.056-1.536 172.544-1.024v-42.496c0-29.696 2.56-45.568 7.68-52.736 4.096-5.12 7.68-11.776 7.68-13.824s-82.944-3.072-184.832-2.56l-184.832 1.536-9.728 12.288c-9.216 11.264-9.728 25.6-9.728 406.016 0 268.8 1.536 397.312 5.632 403.968 3.072 5.632 10.24 12.288 16.384 14.848s132.096 4.096 281.6 3.584c261.632-1.024 270.848-1.536 278.016-10.752zM860.16 606.72c5.632-3.072 12.288-13.824 15.36-24.576 6.656-25.6 7.168-498.688 0-523.776-9.216-32.256-9.728-32.768-140.288-34.304-139.776-2.048-156.16-0.512-177.152 19.456l-15.36 14.336v519.168l34.816 34.816h136.704c81.92 0 140.288-2.048 145.92-5.12zM422.4 119.808c-16.384-9.216-23.040-20.992-23.040-40.448 0-22.016 11.264-34.304 34.816-38.912 13.312-2.56 18.432-0.512 31.744 12.288 18.432 18.432 19.968 36.352 4.096 54.272-13.824 15.36-33.28 20.48-47.616 12.8zM564.224 541.184c-5.12-3.584-6.144-51.712-5.12-224.256l1.536-219.648 145.408-1.536c102.912-1.024 147.456 0.512 152.064 4.608 9.728 8.192 10.752 429.056 1.024 438.784-7.168 7.168-283.648 8.704-294.912 2.048zM834.56 320v-194.56h-250.88v389.12h250.88v-194.56z" />
<glyph unicode="&#xe919;" glyph-name="ux" d="M282.112 884.736c-2.56-5.12-12.8-29.184-23.040-54.272l-18.432-44.544v-215.040h-17.408c-9.216 0-19.968-3.072-23.040-7.168-4.096-4.608-5.12-83.968-4.608-285.184l1.536-278.528h460.8l1.536 54.272 1.536 54.784 41.984 2.048c67.584 3.584 105.984 28.16 124.416 79.36 8.192 23.552 9.728 209.408 2.048 236.544-14.848 52.224-57.344 81.408-124.928 86.016l-43.52 3.072-3.072 52.224-43.52 3.072v219.648l-18.432 44.544c-30.208 74.24-36.864 75.264-65.024 7.168l-18.944-47.104v-224.768h-30.72v297.472l-12.8 12.288c-9.728 10.24-17.408 12.8-38.4 12.8-14.336 0-30.72-2.048-35.84-5.12-17.92-9.728-20.48-32.768-20.48-177.152v-140.288h-25.6v218.624l-19.456 45.568c-10.24 25.088-20.992 48.64-23.040 52.224-6.144 8.704-17.92 7.68-23.552-2.56zM317.44 673.28v-102.4h-46.080v204.8h46.080v-102.4zM583.68 673.28v-102.4h-46.080v98.816c0 54.784 1.536 100.864 3.584 102.4 1.536 2.048 12.288 3.584 23.040 3.584h19.456v-102.4zM450.56 657.92v-87.040h-46.080v174.080h46.080v-87.040zM635.904 513.536l1.536-27.136 53.76-2.56c62.976-3.072 85.504-13.312 102.912-47.104 9.728-18.432 10.24-28.16 8.704-131.072-1.536-107.008-2.048-111.616-13.312-128-19.456-26.624-37.888-33.792-98.304-36.864l-53.76-2.56-1.536-54.784-1.536-55.296h-409.088v512h409.088l1.536-26.624zM637.44 446.464c-1.536-3.584-2.048-66.048-1.536-139.264l1.536-133.12 11.776-1.536c7.68-1.024 11.264 1.024 11.264 6.144 0 6.656 6.144 8.192 31.232 8.192 31.744 0 48.64 5.632 59.392 19.968 4.608 5.632 6.144 37.376 6.656 105.984v97.792l-12.8 11.776c-10.752 10.24-19.968 12.8-48.64 14.336-26.112 1.536-35.84 4.096-35.84 9.216 0 8.704-19.968 9.728-23.040 0.512zM727.040 312.32v-94.72h-66.56v189.44h66.56v-94.72zM274.944 372.736c-2.048-1.536-3.584-68.608-3.584-148.48 0-130.048 1.024-145.408 8.192-148.48 19.968-7.68 22.528 9.216 22.528 150.016 0 73.728-1.536 137.728-3.072 142.336-3.072 8.192-17.92 11.264-24.064 4.608z" />
</font>
</defs>
</svg>
